HIERARCHY
ROOT Hips
{
	OFFSET -0.001795 -0.223333 0.028219
	CHANNELS 6 Xposition Yposition Zposition Zrotation Yrotation Xrotation 
	JOINT LeftUpLeg
	{
		OFFSET 0.069520 -0.091406 -0.006815
		CHANNELS 3 Zrotation Yrotation Xrotation
		JOINT LeftLeg
		{
			OFFSET 0.034277 -0.375199 -0.004496
			CHANNELS 3 Zrotation Yrotation Xrotation
			JOINT LeftFoot
			{
				OFFSET -0.013596 -0.397961 -0.043693
				CHANNELS 3 Zrotation Yrotation Xrotation
				JOINT LeftToe
				{
					OFFSET 0.026358 -0.055791 0.119288
					CHANNELS 3 Zrotation Yrotation Xrotation
					End Site
					{
						OFFSET 0.000000 0.000000 0.000000
					}
				}
			}
		}
	}
	JOINT RightUpLeg
	{
		OFFSET -0.067670 -0.090522 -0.004320
		CHANNELS 3 Zrotation Yrotation Xrotation
		JOINT RightLeg
		{
			OFFSET -0.038290 -0.382569 -0.008850
			CHANNELS 3 Zrotation Yrotation Xrotation
			JOINT RightFoot
			{
				OFFSET 0.015774 -0.398415 -0.042312
				CHANNELS 3 Zrotation Yrotation Xrotation
				JOINT RightToe
				{
					OFFSET -0.025372 -0.048144 0.123348
					CHANNELS 3 Zrotation Yrotation Xrotation
					End Site
					{
						OFFSET 0.000000 0.000000 0.000000
					}
				}
			}
		}
	}
	JOINT Spine
	{
		OFFSET -0.002533 0.108963 -0.026696
		CHANNELS 3 Zrotation Yrotation Xrotation
		JOINT Spine1
		{
			OFFSET 0.005487 0.135180 0.001092
			CHANNELS 3 Zrotation Yrotation Xrotation
			JOINT Spine2
			{
				OFFSET 0.001457 0.052922 0.025425
				CHANNELS 3 Zrotation Yrotation Xrotation
				JOINT Neck
				{
					OFFSET -0.002778 0.213870 -0.042857
					CHANNELS 3 Zrotation Yrotation Xrotation
					JOINT Head
					{
						OFFSET 0.005152 0.064970 0.051349
						CHANNELS 3 Zrotation Yrotation Xrotation
						End Site
						{
							OFFSET 0.000000 0.000000 0.000000
						}
					}
				}
				JOINT LeftShoulder
				{
					OFFSET 0.078845 0.121749 -0.034090
					CHANNELS 3 Zrotation Yrotation Xrotation
					JOINT LeftArm
					{
						OFFSET 0.090977 0.030469 -0.008868
						CHANNELS 3 Zrotation Yrotation Xrotation
						JOINT LeftForeArm
						{
							OFFSET 0.259612 -0.012772 -0.027456
							CHANNELS 3 Zrotation Yrotation Xrotation
							JOINT LeftHand
							{
								OFFSET 0.249234 0.008986 -0.001171
								CHANNELS 3 Zrotation Yrotation Xrotation
								End Site
								{
									OFFSET 0.000000 0.000000 0.000000
								}
							}
						}
					}
				}
				JOINT RightShoulder
				{
					OFFSET -0.081759 0.118833 -0.038615
					CHANNELS 3 Zrotation Yrotation Xrotation
					JOINT RightArm
					{
						OFFSET -0.096012 0.032551 -0.009143
						CHANNELS 3 Zrotation Yrotation Xrotation
						JOINT RightForeArm
						{
							OFFSET -0.253742 -0.013329 -0.021401
							CHANNELS 3 Zrotation Yrotation Xrotation
							JOINT RightHand
							{
								OFFSET -0.255298 0.007772 -0.005559
								CHANNELS 3 Zrotation Yrotation Xrotation
								End Site
								{
									OFFSET 0.000000 0.000000 0.000000
								}
							}
						}
					}
				}
			}
		}
	}
}
MOTION
Frames: 7
Frame Time: 0.050000
-0.046084 0.891167 -0.594632 0.494815 -1.548249 -5.089321 6.814372 -0.637551 -21.959194 -6.797492 0.788877 0.161132 -0.381067 5.826678 18.675457 0.000000 0.000000 0.000000 -0.764710 -1.383800 15.673771 3.619201 -0.043046 25.663882 -3.871283 -11.439845 6.978918 0.000000 0.000000 0.000000 -7.508093 0.387988 15.740332 7.827589 -1.888197 -19.058400 2.214034 9.397446 19.966422 -8.331976 6.914862 -35.847776 0.000000 0.000000 0.000000 -40.473403 -4.038780 -4.974780 -34.576664 -5.228302 -2.602642 -22.339352 -32.313664 7.494186 0.000000 0.000000 0.000000 20.994164 18.154467 11.081303 33.850943 15.423165 -1.099938 9.405025 50.035976 6.921304 0.000000 0.000000 0.000000 
-0.052138 0.892170 -0.655567 -0.239618 -1.543245 -4.586568 8.428141 -0.340549 -23.177077 -6.562222 0.647350 -4.443589 -0.635482 7.083411 24.906400 0.000000 0.000000 0.000000 1.121669 -1.406644 13.055561 3.946588 -0.205096 22.493168 -6.082289 -15.090783 0.643222 0.000000 0.000000 0.000000 -4.787671 0.035534 16.583810 8.299341 -2.105084 -18.245105 0.376327 8.484662 19.112770 -6.299055 5.920331 -36.785032 0.000000 0.000000 0.000000 -40.972583 -2.107099 -6.291684 -34.716476 -4.113162 -2.928562 -21.093974 -30.257239 6.673741 0.000000 0.000000 0.000000 20.360894 18.689697 11.035123 36.794390 16.204276 -0.666922 8.429203 48.151053 6.169485 0.000000 0.000000 0.000000 
-0.057098 0.903409 -0.708860 0.084245 -1.738729 -4.577587 8.687301 -0.265515 -22.423497 -7.145828 0.711370 -3.914890 0.755771 8.045610 21.334856 0.000000 0.000000 0.000000 1.533246 -1.232907 11.031073 3.741672 -0.168124 19.873175 -6.348804 -15.334125 -1.817439 0.000000 0.000000 0.000000 -4.234700 -0.032695 17.004520 7.870655 -1.811521 -19.915898 1.015212 8.156034 21.514787 -5.649225 5.644079 -36.681262 0.000000 0.000000 0.000000 -41.815328 -3.145901 -5.230065 -34.265412 -2.920381 -3.405733 -20.127153 -26.784319 5.686895 0.000000 0.000000 0.000000 20.520887 16.922013 9.991796 39.377319 15.713718 -0.934113 10.312674 45.996536 6.698513 0.000000 0.000000 0.000000 
-0.060793 0.921103 -0.754067 0.373587 -1.843322 -3.884762 8.055871 -0.385600 -21.640324 -6.984922 0.860108 1.819428 3.734887 10.973587 14.845963 0.000000 0.000000 0.000000 1.541091 -1.176021 10.493020 2.804274 -0.011988 14.901158 -4.570633 -10.760901 -2.195745 0.000000 0.000000 0.000000 -4.686434 0.039889 16.006551 8.640921 -2.057028 -19.605427 0.928812 7.382300 21.864992 -4.690127 5.161396 -34.525632 0.000000 0.000000 0.000000 -42.231963 -2.700972 -5.168506 -34.826497 -2.180839 -3.793810 -19.144620 -23.896251 4.870382 0.000000 0.000000 0.000000 20.417490 16.608834 9.582097 41.329770 14.096354 -1.369613 10.947388 43.201472 6.395623 0.000000 0.000000 0.000000 
-0.062526 0.938217 -0.793377 0.720158 -1.679545 -2.796348 6.835072 -0.618196 -20.611171 -6.598547 1.026214 9.989203 5.310930 12.994905 12.167196 0.000000 0.000000 0.000000 2.184932 -1.091442 9.057896 1.259999 0.205665 10.732270 -3.749103 -9.459361 0.348056 0.000000 0.000000 0.000000 -4.573014 0.031812 14.852434 8.554502 -1.952228 -20.138452 0.427970 6.078271 22.555129 -4.023901 4.686393 -34.501523 0.000000 0.000000 0.000000 -41.388375 -1.765148 -5.058559 -35.888443 -1.563514 -4.327604 -18.453436 -22.338299 4.441323 0.000000 0.000000 0.000000 20.988063 15.704014 8.909222 42.587715 10.965495 -2.429567 11.634691 41.078549 6.223890 0.000000 0.000000 0.000000 
-0.062464 0.950120 -0.828935 1.315920 -1.296707 -1.817030 5.682436 -0.755287 -17.971981 -7.166259 1.362671 16.722376 5.751703 13.145379 7.576446 0.000000 0.000000 0.000000 1.130541 -0.769313 6.941104 0.971165 0.142132 7.422022 -1.975202 -6.661668 4.440469 0.000000 0.000000 0.000000 -5.044242 0.103660 14.807177 8.356014 -1.676727 -22.022250 0.584712 5.468321 23.627842 -3.955906 4.606118 -33.383644 0.000000 0.000000 0.000000 -41.358095 -1.704440 -4.842096 -35.636571 -0.947250 -4.581250 -18.111923 -21.100331 4.133418 0.000000 0.000000 0.000000 22.031818 14.195154 8.149028 42.901340 7.948498 -3.538126 11.790451 38.447909 5.783736 0.000000 0.000000 0.000000 
-0.060938 0.954869 -0.861253 1.172340 -1.680761 -1.195928 5.123074 -0.678057 -14.336238 -7.597650 1.729363 22.052107 7.770090 16.853123 12.242260 0.000000 0.000000 0.000000 1.007584 -0.516124 4.640052 0.960440 0.085217 5.606309 -1.209801 -5.937875 7.058119 0.000000 0.000000 0.000000 -4.358519 0.025787 14.175747 7.909203 -1.490468 -22.639197 0.489410 4.208049 23.648004 -3.498522 4.160563 -33.613309 0.000000 0.000000 0.000000 -41.281984 -0.883580 -4.648126 -35.805676 -0.758971 -4.882445 -17.787877 -20.463789 3.982258 0.000000 0.000000 0.000000 22.084531 13.327341 7.225452 42.998172 5.678652 -4.200713 12.870233 35.664723 5.530616 0.000000 0.000000 0.000000 
